<?xml version="1.0" encoding="UTF-8" standalone="no"?>
<svg
   xmlns:dc="http://purl.org/dc/elements/1.1/"
   xmlns:cc="http://creativecommons.org/ns#"
   xmlns:rdf="http://www.w3.org/1999/02/22-rdf-syntax-ns#"
   xmlns:svg="http://www.w3.org/2000/svg"
   xmlns="http://www.w3.org/2000/svg"
   version="1.1"
   id="svg4244"
   viewBox="0 0 32 32.000001"
   height="32"
   width="32">
  <defs
     id="defs4246" />
  <metadata
     id="metadata4249">
    <rdf:RDF>
      <cc:Work
         rdf:about="">
        <dc:format>image/svg+xml</dc:format>
        <dc:type
           rdf:resource="http://purl.org/dc/dcmitype/StillImage" />
        <dc:title />
      </cc:Work>
    </rdf:RDF>
  </metadata>
  <g
     transform="translate(0,-1020.3622)"
     id="layer1">
    <g
       transform="translate(-4.2590071,-3.0333347)"
       id="g4783">
      <g
         id="g8520">
        <path
           style="color:#000000;font-style:normal;font-variant:normal;font-weight:normal;font-stretch:normal;font-size:medium;line-height:normal;font-family:sans-serif;text-indent:0;text-align:start;text-decoration:none;text-decoration-line:none;text-decoration-style:solid;text-decoration-color:#000000;letter-spacing:normal;word-spacing:normal;text-transform:none;direction:ltr;block-progression:tb;writing-mode:lr-tb;baseline-shift:baseline;text-anchor:start;white-space:normal;clip-rule:nonzero;display:inline;overflow:visible;visibility:visible;opacity:1;isolation:auto;mix-blend-mode:normal;color-interpolation:sRGB;color-interpolation-filters:linearRGB;solid-color:#000000;solid-opacity:1;fill:#c7c6ce;fill-opacity:1;fill-rule:nonzero;stroke:none;stroke-width:1;stroke-linecap:round;stroke-linejoin:round;stroke-miterlimit:4;stroke-dasharray:none;stroke-dashoffset:0;stroke-opacity:1;color-rendering:auto;image-rendering:auto;shape-rendering:auto;text-rendering:auto;enable-background:accumulate"
           d="m 19.259766,1026.3379 c -2.20718,0 -4,1.7917 -4,3.998 l 0,5.4981 a 0.50005,0.50005 0 1 0 1,0 l 0,-5.4981 c 0,-1.6692 1.329179,-2.998 3,-2.998 1.67082,0 3,1.3288 3,2.998 l 0,5.4981 a 0.50005,0.50005 0 1 0 1,0 l 0,-5.4981 c 0,-2.2063 -1.792821,-3.998 -4,-3.998 z"
           id="path4869" />
        <path
           style="fill:#990012;fill-opacity:1;fill-rule:evenodd;stroke:none;stroke-width:1px;stroke-linecap:butt;stroke-linejoin:miter;stroke-opacity:1"
           d="m 12.259028,1033.3955 3.999965,0 c 0.55401,0 1.000017,0.446 1.000017,1 l 0,18 c 0,0.554 -0.446007,1 -1.000017,1 l -3.999965,0 c -0.55401,0 -1.000018,-0.446 -1.000018,-1 l 0,-18 c 0,-0.554 0.446008,-1 1.000018,-1 z"
           id="rect4050" />
        <path
           style="fill:#3c3b41;fill-opacity:1;stroke:none"
           d="m 14.25901,1033.3955 2,0 0,1 -2,0 z"
           id="rect4059" />
        <path
           style="fill:#3c3b41;fill-opacity:1;stroke:none"
           d="m 12.00901,1033.3956 c -0.41551,0 -0.75,0.3344 -0.75,0.75 0,0.8309 0.669,1.5 1.5,1.5 0.831,0 1.5,-0.6691 1.5,-1.5 l 0,-0.75 -2.25,0 z"
           id="rect4054" />
        <path
           style="fill:#e6001f;fill-opacity:1;fill-rule:evenodd;stroke:none;stroke-width:1px;stroke-linecap:butt;stroke-linejoin:miter;stroke-opacity:1"
           d="m 15.330439,1033.3955 12.857138,0 c 0.593572,0 1.071429,0.446 1.071429,1 l 0,18 c 0,0.554 -0.477857,1 -1.071429,1 l -12.857138,0 c -0.593572,0 -1.071429,-0.446 -1.071429,-1 l 0,-18 c 0,-0.554 0.477857,-1 1.071429,-1 z"
           id="rect4048" />
        <path
           style="fill:#990012;fill-opacity:1;stroke:none;stroke-width:1;stroke-linecap:round;stroke-linejoin:round"
           d="m 19.75901,1035.8955 a 1,1 0 0 1 -1,1 1,1 0 0 1 -1,-1 1,1 0 0 1 1,-1 1,1 0 0 1 1,1 z"
           id="path4871" />
        <path
           style="fill:#990012;fill-opacity:1;stroke:none;stroke-width:1;stroke-linecap:round;stroke-linejoin:round"
           d="m 26.75901,1035.8955 a 1,1 0 0 1 -1,1 1,1 0 0 1 -1,-1 1,1 0 0 1 1,-1 1,1 0 0 1 1,1 z"
           id="circle4873" />
        <path
           style="color:#000000;font-style:normal;font-variant:normal;font-weight:normal;font-stretch:normal;font-size:medium;line-height:normal;font-family:sans-serif;text-indent:0;text-align:start;text-decoration:none;text-decoration-line:none;text-decoration-style:solid;text-decoration-color:#000000;letter-spacing:normal;word-spacing:normal;text-transform:none;direction:ltr;block-progression:tb;writing-mode:lr-tb;baseline-shift:baseline;text-anchor:start;white-space:normal;clip-rule:nonzero;display:inline;overflow:visible;visibility:visible;opacity:1;isolation:auto;mix-blend-mode:normal;color-interpolation:sRGB;color-interpolation-filters:linearRGB;solid-color:#000000;solid-opacity:1;fill:#c7c6ce;fill-opacity:1;fill-rule:nonzero;stroke:none;stroke-width:1;stroke-linecap:round;stroke-linejoin:round;stroke-miterlimit:4;stroke-dasharray:none;stroke-dashoffset:0;stroke-opacity:1;color-rendering:auto;image-rendering:auto;shape-rendering:auto;text-rendering:auto;enable-background:accumulate"
           d="m 22.259766,1026.3379 c -2.20718,0 -4,1.7917 -4,3.998 l 0,5.4981 a 0.50005,0.50005 0 1 0 1,0 l 0,-5.4981 c 0,-1.6692 1.329179,-2.998 3,-2.998 1.67082,0 3,1.3288 3,2.998 l 0,5.4981 a 0.50005,0.50005 0 1 0 1,0 l 0,-5.4981 c 0,-2.2063 -1.792821,-3.998 -4,-3.998 z"
           id="rect4065" />
        <path
           style="color:#000000;font-style:normal;font-variant:normal;font-weight:normal;font-stretch:normal;font-size:medium;line-height:normal;font-family:sans-serif;text-indent:0;text-align:start;text-decoration:none;text-decoration-line:none;text-decoration-style:solid;text-decoration-color:#000000;letter-spacing:normal;word-spacing:normal;text-transform:none;direction:ltr;block-progression:tb;writing-mode:lr-tb;baseline-shift:baseline;text-anchor:start;white-space:normal;clip-rule:nonzero;display:inline;overflow:visible;visibility:visible;opacity:1;isolation:auto;mix-blend-mode:normal;color-interpolation:sRGB;color-interpolation-filters:linearRGB;solid-color:#000000;solid-opacity:1;fill:#c7c6ce;fill-opacity:1;fill-rule:evenodd;stroke:none;stroke-width:0.99999994;stroke-linecap:round;stroke-linejoin:round;stroke-miterlimit:4;stroke-dasharray:none;stroke-dashoffset:0;stroke-opacity:1;color-rendering:auto;image-rendering:auto;shape-rendering:auto;text-rendering:auto;enable-background:accumulate"
           d="m 22.251953,1038.9531 a 0.50004997,0.50004997 0 0 0 -0.492187,0.5059 l 0,10.4277 a 0.50004997,0.50004997 0 1 0 1,0 l 0,-10.4277 a 0.50004997,0.50004997 0 0 0 -0.507813,-0.5059 z"
           id="path5075" />
        <path
           style="color:#000000;font-style:normal;font-variant:normal;font-weight:normal;font-stretch:normal;font-size:medium;line-height:normal;font-family:sans-serif;text-indent:0;text-align:start;text-decoration:none;text-decoration-line:none;text-decoration-style:solid;text-decoration-color:#000000;letter-spacing:normal;word-spacing:normal;text-transform:none;direction:ltr;block-progression:tb;writing-mode:lr-tb;baseline-shift:baseline;text-anchor:start;white-space:normal;clip-rule:nonzero;display:inline;overflow:visible;visibility:visible;opacity:1;isolation:auto;mix-blend-mode:normal;color-interpolation:sRGB;color-interpolation-filters:linearRGB;solid-color:#000000;solid-opacity:1;fill:#c7c6ce;fill-opacity:1;fill-rule:evenodd;stroke:none;stroke-width:0.99999994;stroke-linecap:round;stroke-linejoin:round;stroke-miterlimit:4;stroke-dasharray:none;stroke-dashoffset:0;stroke-opacity:1;color-rendering:auto;image-rendering:auto;shape-rendering:auto;text-rendering:auto;enable-background:accumulate"
           d="m 21.066406,1039.9238 a 0.50004997,0.50004997 0 0 0 -0.277344,0.918 l 1.189454,0.8027 a 0.50004997,0.50004997 0 0 0 0.560546,0 l 1.189454,-0.8027 a 0.50004997,0.50004997 0 1 0 -0.558594,-0.8281 l -0.910156,0.6133 -0.910157,-0.6133 a 0.50004997,0.50004997 0 0 0 -0.283203,-0.09 z"
           id="path5077" />
        <path
           style="color:#000000;font-style:normal;font-variant:normal;font-weight:normal;font-stretch:normal;font-size:medium;line-height:normal;font-family:sans-serif;text-indent:0;text-align:start;text-decoration:none;text-decoration-line:none;text-decoration-style:solid;text-decoration-color:#000000;letter-spacing:normal;word-spacing:normal;text-transform:none;direction:ltr;block-progression:tb;writing-mode:lr-tb;baseline-shift:baseline;text-anchor:start;white-space:normal;clip-rule:nonzero;display:inline;overflow:visible;visibility:visible;opacity:1;isolation:auto;mix-blend-mode:normal;color-interpolation:sRGB;color-interpolation-filters:linearRGB;solid-color:#000000;solid-opacity:1;fill:#c7c6ce;fill-opacity:1;fill-rule:evenodd;stroke:none;stroke-width:0.99999994;stroke-linecap:round;stroke-linejoin:round;stroke-miterlimit:4;stroke-dasharray:none;stroke-dashoffset:0;stroke-opacity:1;color-rendering:auto;image-rendering:auto;shape-rendering:auto;text-rendering:auto;enable-background:accumulate"
           d="m 22.255859,1047.4043 a 0.50004997,0.50004997 0 0 0 -0.277343,0.084 l -1.189454,0.8047 a 0.50004997,0.50004997 0 1 0 0.560547,0.8281 l 0.910157,-0.6152 0.910156,0.6152 a 0.50004997,0.50004997 0 1 0 0.558594,-0.8281 l -1.189454,-0.8047 a 0.50004997,0.50004997 0 0 0 -0.283203,-0.084 z"
           id="path5079" />
        <path
           style="color:#000000;font-style:normal;font-variant:normal;font-weight:normal;font-stretch:normal;font-size:medium;line-height:normal;font-family:sans-serif;text-indent:0;text-align:start;text-decoration:none;text-decoration-line:none;text-decoration-style:solid;text-decoration-color:#000000;letter-spacing:normal;word-spacing:normal;text-transform:none;direction:ltr;block-progression:tb;writing-mode:lr-tb;baseline-shift:baseline;text-anchor:start;white-space:normal;clip-rule:nonzero;display:inline;overflow:visible;visibility:visible;opacity:1;isolation:auto;mix-blend-mode:normal;color-interpolation:sRGB;color-interpolation-filters:linearRGB;solid-color:#000000;solid-opacity:1;fill:#c7c6ce;fill-opacity:1;fill-rule:evenodd;stroke:none;stroke-width:0.99999994;stroke-linecap:round;stroke-linejoin:round;stroke-miterlimit:4;stroke-dasharray:none;stroke-dashoffset:0;stroke-opacity:1;color-rendering:auto;image-rendering:auto;shape-rendering:auto;text-rendering:auto;enable-background:accumulate"
           d="m 26.726562,1041.5664 a 0.50004997,0.50004997 0 0 0 -0.222656,0.07 l -8.992187,5.2129 a 0.50013195,0.50013195 0 1 0 0.501953,0.8652 l 8.992187,-5.2128 a 0.50004997,0.50004997 0 0 0 -0.279297,-0.9356 z"
           id="path5081" />
        <path
           style="color:#000000;font-style:normal;font-variant:normal;font-weight:normal;font-stretch:normal;font-size:medium;line-height:normal;font-family:sans-serif;text-indent:0;text-align:start;text-decoration:none;text-decoration-line:none;text-decoration-style:solid;text-decoration-color:#000000;letter-spacing:normal;word-spacing:normal;text-transform:none;direction:ltr;block-progression:tb;writing-mode:lr-tb;baseline-shift:baseline;text-anchor:start;white-space:normal;clip-rule:nonzero;display:inline;overflow:visible;visibility:visible;opacity:1;isolation:auto;mix-blend-mode:normal;color-interpolation:sRGB;color-interpolation-filters:linearRGB;solid-color:#000000;solid-opacity:1;fill:#c7c6ce;fill-opacity:1;fill-rule:evenodd;stroke:none;stroke-width:0.99999994;stroke-linecap:round;stroke-linejoin:round;stroke-miterlimit:4;stroke-dasharray:none;stroke-dashoffset:0;stroke-opacity:1;color-rendering:auto;image-rendering:auto;shape-rendering:auto;text-rendering:auto;enable-background:accumulate"
           d="m 17.726562,1041.5605 a 0.50004997,0.50004997 0 0 0 -0.214843,0.9356 l 8.992187,5.2148 a 0.50013195,0.50013195 0 0 0 0.501953,-0.8652 l -8.992187,-5.2148 a 0.50004997,0.50004997 0 0 0 -0.28711,-0.07 z"
           id="path5083" />
        <path
           style="color:#000000;font-style:normal;font-variant:normal;font-weight:normal;font-stretch:normal;font-size:medium;line-height:normal;font-family:sans-serif;text-indent:0;text-align:start;text-decoration:none;text-decoration-line:none;text-decoration-style:solid;text-decoration-color:#000000;letter-spacing:normal;word-spacing:normal;text-transform:none;direction:ltr;block-progression:tb;writing-mode:lr-tb;baseline-shift:baseline;text-anchor:start;white-space:normal;clip-rule:nonzero;display:inline;overflow:visible;visibility:visible;opacity:1;isolation:auto;mix-blend-mode:normal;color-interpolation:sRGB;color-interpolation-filters:linearRGB;solid-color:#000000;solid-opacity:1;fill:#c7c6ce;fill-opacity:1;fill-rule:evenodd;stroke:none;stroke-width:0.99999994;stroke-linecap:round;stroke-linejoin:round;stroke-miterlimit:4;stroke-dasharray:none;stroke-dashoffset:0;stroke-opacity:1;color-rendering:auto;image-rendering:auto;shape-rendering:auto;text-rendering:auto;enable-background:accumulate"
           d="m 25.236328,1040.9629 a 0.50004997,0.50004997 0 0 0 -0.476562,0.4707 l -0.103516,1.4297 a 0.50004997,0.50004997 0 0 0 0.28125,0.4863 l 1.292969,0.625 a 0.50004997,0.50004997 0 1 0 0.435547,-0.8984 l -0.986328,-0.4785 0.07812,-1.0918 a 0.50004997,0.50004997 0 0 0 -0.521484,-0.543 z"
           id="path5085" />
        <path
           style="color:#000000;font-style:normal;font-variant:normal;font-weight:normal;font-stretch:normal;font-size:medium;line-height:normal;font-family:sans-serif;text-indent:0;text-align:start;text-decoration:none;text-decoration-line:none;text-decoration-style:solid;text-decoration-color:#000000;letter-spacing:normal;word-spacing:normal;text-transform:none;direction:ltr;block-progression:tb;writing-mode:lr-tb;baseline-shift:baseline;text-anchor:start;white-space:normal;clip-rule:nonzero;display:inline;overflow:visible;visibility:visible;opacity:1;isolation:auto;mix-blend-mode:normal;color-interpolation:sRGB;color-interpolation-filters:linearRGB;solid-color:#000000;solid-opacity:1;fill:#c7c6ce;fill-opacity:1;fill-rule:evenodd;stroke:none;stroke-width:0.99999994;stroke-linecap:round;stroke-linejoin:round;stroke-miterlimit:4;stroke-dasharray:none;stroke-dashoffset:0;stroke-opacity:1;color-rendering:auto;image-rendering:auto;shape-rendering:auto;text-rendering:auto;enable-background:accumulate"
           d="m 18.046875,1045.1055 a 0.50004997,0.50004997 0 0 0 -0.195313,0.9531 l 0.988282,0.4785 -0.07813,1.0918 a 0.50004997,0.50004997 0 1 0 0.996093,0.072 l 0.103516,-1.4297 a 0.50004997,0.50004997 0 0 0 -0.28125,-0.4863 l -1.292969,-0.627 a 0.50004997,0.50004997 0 0 0 -0.240234,-0.053 z"
           id="path5087" />
        <path
           style="color:#000000;font-style:normal;font-variant:normal;font-weight:normal;font-stretch:normal;font-size:medium;line-height:normal;font-family:sans-serif;text-indent:0;text-align:start;text-decoration:none;text-decoration-line:none;text-decoration-style:solid;text-decoration-color:#000000;letter-spacing:normal;word-spacing:normal;text-transform:none;direction:ltr;block-progression:tb;writing-mode:lr-tb;baseline-shift:baseline;text-anchor:start;white-space:normal;clip-rule:nonzero;display:inline;overflow:visible;visibility:visible;opacity:1;isolation:auto;mix-blend-mode:normal;color-interpolation:sRGB;color-interpolation-filters:linearRGB;solid-color:#000000;solid-opacity:1;fill:#c7c6ce;fill-opacity:1;fill-rule:evenodd;stroke:none;stroke-width:0.99999994;stroke-linecap:round;stroke-linejoin:round;stroke-miterlimit:4;stroke-dasharray:none;stroke-dashoffset:0;stroke-opacity:1;color-rendering:auto;image-rendering:auto;shape-rendering:auto;text-rendering:auto;enable-background:accumulate"
           d="m 26.457031,1045.1055 a 0.50004997,0.50004997 0 0 0 -0.226562,0.053 l -1.292969,0.627 a 0.50004997,0.50004997 0 0 0 -0.28125,0.4863 l 0.103516,1.4297 a 0.50033067,0.50033067 0 1 0 0.998046,-0.072 l -0.07812,-1.0918 0.986328,-0.4785 a 0.50004997,0.50004997 0 0 0 -0.208985,-0.9531 z"
           id="path5089" />
        <path
           style="color:#000000;font-style:normal;font-variant:normal;font-weight:normal;font-stretch:normal;font-size:medium;line-height:normal;font-family:sans-serif;text-indent:0;text-align:start;text-decoration:none;text-decoration-line:none;text-decoration-style:solid;text-decoration-color:#000000;letter-spacing:normal;word-spacing:normal;text-transform:none;direction:ltr;block-progression:tb;writing-mode:lr-tb;baseline-shift:baseline;text-anchor:start;white-space:normal;clip-rule:nonzero;display:inline;overflow:visible;visibility:visible;opacity:1;isolation:auto;mix-blend-mode:normal;color-interpolation:sRGB;color-interpolation-filters:linearRGB;solid-color:#000000;solid-opacity:1;fill:#c7c6ce;fill-opacity:1;fill-rule:evenodd;stroke:none;stroke-width:0.99999994;stroke-linecap:round;stroke-linejoin:round;stroke-miterlimit:4;stroke-dasharray:none;stroke-dashoffset:0;stroke-opacity:1;color-rendering:auto;image-rendering:auto;shape-rendering:auto;text-rendering:auto;enable-background:accumulate"
           d="m 19.265625,1040.9629 a 0.50004997,0.50004997 0 0 0 -0.503906,0.543 l 0.07813,1.0918 -0.988282,0.4785 a 0.50004997,0.50004997 0 1 0 0.435547,0.8984 l 1.292969,-0.625 a 0.50004997,0.50004997 0 0 0 0.28125,-0.4863 l -0.103516,-1.4297 a 0.50004997,0.50004997 0 0 0 -0.492187,-0.4707 z"
           id="path5091" />
      </g>
    </g>
  </g>
</svg>
